Coordinates
version=1
nRows=12
nColumns=24
inDegrees=yes

Units are S.I. units (second, meters, Newtons, ...)
Angles are in degrees.

endheader
time	pelvis_tilt	pelvis_list	pelvis_rotation	pelvis_tx	pelvis_ty	pelvis_tz	hip_flexion_r	hip_adduction_r	hip_rotation_r	knee_angle_r	ankle_angle_r	subtalar_angle_r	mtp_angle_r	hip_flexion_l	hip_adduction_l	hip_rotation_l	knee_angle_l	ankle_angle_l	subtalar_angle_l	mtp_angle_l	lumbar_extension	lumbar_bending	lumbar_rotation
      1.56250000	     -7.89534535	      1.06789875	     -3.19670211	      0.50097062	      0.99259654	      0.29363752	     16.39310359	     -3.40107051	     -2.20111876	    -53.92486461	     -8.34595931	      4.89266610	    -46.15507504	      9.18574185	      7.53584192	     -5.90863326	      1.55180727	    -24.99713057	    -14.74288249	    -10.85254080	     23.28947453	     -1.34008792	      4.66562977
      1.56666667	     -7.89278047	      1.02130240	     -3.13172160	      0.50598651	      0.99290230	      0.29342440	     17.05089928	     -3.28406187	     -2.02628066	    -53.92317784	     -8.08746322	      4.93469934	    -46.12678476	      8.67899863	      7.52254837	     -5.76147815	      1.86211853	    -24.93274423	    -14.64596420	    -10.86009916	     23.19919250	     -1.29906578	      4.58138632
      1.57083333	     -7.83507559	      0.97949954	     -3.01555238	      0.51105632	      0.99328126	      0.29306432	     17.61852289	     -3.20363473	     -1.91414166	    -54.00690551	     -7.03724362	      5.20644183	    -46.02035404	      8.13181562	      7.52913402	     -5.76283726	      2.12248109	    -24.70304971	    -14.39506059	    -10.89666529	     23.14078450	     -1.31740709	      4.35067151
      1.57500000	     -7.83933161	      0.94683738	     -2.94563855	      0.51599179	      0.99352923	      0.29283277	     18.28267167	     -3.10221883	     -1.75269735	    -53.94065469	     -6.81828124	      5.26601896	    -45.99371815	      7.63884814	      7.52715232	     -5.62564105	      2.43775244	    -24.64005166	    -14.28275478	    -10.90560594	     23.05260293	     -1.28898742	      4.27379744
      1.57916667	     -7.80269361	      0.90257147	     -2.83466117	      0.52105660	      0.99383850	      0.29255882	     18.85650186	     -3.00187186	     -1.61325322	    -53.93359581	     -5.86659349	      5.62883700	    -45.88487345	      7.10434041	      7.51323217	     -5.62363528	      2.70953377	    -24.40305198	    -13.97530167	    -10.95090706	     23.00366347	     -1.31305860	      4.04011037
      1.58333333	     -7.77873429	      0.87335053	     -2.75692914	      0.52604193	      0.99408959	      0.29229945	     19.46016585	     -2.90959622	     -1.43946464	    -53.83722459	     -5.31908507	      5.93076888	    -45.78465579	      6.57751103	      7.51416023	     -5.57078822	      3.01470401	    -24.23380095	    -13.71869369	    -11.00337761	     22.94905019	     -1.32641208	      3.84592478
      1.58750000	     -7.80332386	      0.85499771	     -2.66276226	      0.53095563	      0.99422763	      0.29201938	     20.12348136	     -2.83041034	     -1.31111976	    -53.66001606	     -5.14215127	      5.95320125	    -45.76449933	      6.11323863	      7.52744045	     -5.46458839	      3.31775508	    -24.17800218	    -13.62263730	    -11.01206003	     22.86334248	     -1.30669314	      3.79473286
      1.59166667	     -7.81337092	      0.83789583	     -2.60444979	      0.53590752	      0.99436074	      0.29181651	     20.76660807	     -2.73643892	     -1.15871370	    -53.49122273	     -4.81902679	      6.02280434	    -45.73643021	      5.60958920	      7.53368107	     -5.33589638	      3.66000952	    -24.08024352	    -13.47563031	    -11.02306238	     22.84416137	     -1.29974006	      3.72419180
      1.59583333	     -7.77927457	      0.80267880	     -2.47848922	      0.54088632	      0.99456305	      0.29151327	     21.31591634	     -2.65161908	     -1.03285509	    -53.36033991	     -3.85250560	      6.57551584	    -45.62501376	      5.09132722	      7.52366344	     -5.38301677	      3.91030602	    -23.77205667	    -13.05603203	    -11.08443491	     22.80382388	     -1.32745816	      3.48580830
      1.60000000	     -7.80786739	      0.79886308	     -2.40573759	      0.54576360	      0.99460702	      0.29128585	     21.96896086	     -2.57531695	     -0.89006725	    -53.09430826	     -3.70663560	      6.63533190	    -45.60377160	      4.62474724	      7.54457004	     -5.28007567	      4.23187388	    -23.70936686	    -12.94311532	    -11.09765379	     22.74220282	     -1.33273703	      3.43045367
      1.60416667	     -7.79496676	      0.77442373	     -2.31812973	      0.55073430	      0.99470887	      0.29104914	     22.53702392	     -2.48584480	     -0.74114020	    -52.84984702	     -3.06802336	      7.08397985	    -45.49790054	      4.11052119	      7.54054074	     -5.27419007	      4.52735194	    -23.46068706	    -12.58062905	    -11.17555420	     22.73458656	     -1.35469820	      3.20763976
      1.60833333	     -7.83305975	      0.76865796	     -2.24347131	      0.55558673	      0.99467708	      0.29083279	     23.18342983	     -2.40526758	     -0.61658099	    -52.52250717	     -2.92216742	      7.12444344	    -45.47673820	      3.65675299	      7.55734618	     -5.17813019	      4.84742217	    -23.39699671	    -12.48134890	    -11.19168145	     22.68242619	     -1.36583683	      3.15949763
